<mxfile host="app.diagrams.net" modified="2023-10-25T12:49:54.060Z" agent="Mozilla/5.0 (Windows NT 10.0; Win64; x64) AppleWebKit/537.36 (KHTML, like Gecko) Chrome/118.0.0.0 Safari/537.36" version="21.8.2" etag="fgTeYxRRzPxKNw7TIb_M" type="github">
  <diagram name="Page-1" id="Nf5XCk3FExhRa0PoWnrY">
    <mxGraphModel>
      <root>
        <mxCell id="0" />
        <mxCell id="1" parent="0" />
      </root>
    </mxGraphModel>
  </diagram>
</mxfile>
